# xmcd
#
# Track frame offsets:
#	225
#	13725
#	27271
#	40853
#	53254
#	64512
#	75217
#	85196
#	95440
#	106828
#	117486
#	129378
#	141743
#	155310
#	167452
#	180850
#	191411
#	203040
#	213968
#	225173
#	237413
#	248681
#	260420
#	271194
#	283437
#	295350
#	305661
#	317475
#
# Disc length: 4366 seconds
#
# Revision: 1
# Processed by: cddbd v1.5.2PL0 Copyright (c) Steve Scherf et al.
# Submitted via: audiograbber 1.83.01
#
DISCID=73110b1c
DTITLE=Bull Moose Jackson - 28 Big Ones
DYEAR=2000
DGENRE=Oldies
TTITLE0=I Love You, Yes I Do
TTITLE1=I Can't Go On Without You
TTITLE2=Why Don't You Haul Off And Love Me
TTITLE3=I Know Who Threw The Whiskey In The Well
TTITLE4=Sneaky Pete
TTITLE5=Big Fat Mamas Are Back In Style
TTITLE6=Big Ten Inch Record
TTITLE7=Oo Oo Ee Bob A Lee Bob (w/ Annisteen Allen)
TTITLE8=I Wanna Hug Ya, Kiss Ya, Squeeze Ya
TTITLE9=Meet Me With Your Black Dress On
TTITLE10=Nosey Joe
TTITLE11=Honey Dripper
TTITLE12=Is That All I Mean To You
TTITLE13=(Let Me Love You) All Night Long
TTITLE14=Little Girl, Don't Cry
TTITLE15=All My Love Belongs To You
TTITLE16=I Want A Bowlegged Woman
TTITLE17=If You Ain't Lovin'
TTITLE18=Don't Ask Me
TTITLE19=There Is No Greater Love
TTITLE20=A Fool In Love
TTITLE21=Have You No Mercy
TTITLE22=End This Misery
TTITLE23=Cherokee Boogie
TTITLE24=Just In Case You Change Your Mind
TTITLE25=Jammin' And Jumpin'
TTITLE26=We Ain't Got Nothing But The Blues
TTITLE27=Time Alone Will Tell
EXTD=
EXTT0=
EXTT1=
EXTT2=
EXTT3=
EXTT4=
EXTT5=
EXTT6=
EXTT7=
EXTT8=
EXTT9=
EXTT10=
EXTT11=
EXTT12=
EXTT13=
EXTT14=
EXTT15=
EXTT16=
EXTT17=
EXTT18=
EXTT19=
EXTT20=
EXTT21=
EXTT22=
EXTT23=
EXTT24=
EXTT25=
EXTT26=
EXTT27=
PLAYORDER=
